<svg xmlns="http://www.w3.org/2000/svg" id="Layer_1" data-name="Layer 1" viewBox="0 0 657.21 148.93"><defs><style>      .cls-1 {        fill: #ed1c24;      }      .cls-2 {        fill: #fff;      }    </style></defs><g><path class="cls-1" d="M34.18,132.38c-1.06-.69-.85-2.19-.02-3.17.86-1.1,2.23-2.1,3.6-2.71,3.3-1.49,6.83-2.22,10.34-3.08,8.38-2.38,16.91-4.15,25.39-6.04,2.53-.72,5.08-1.07,7.68-1.58,1.65-.34,3.3-.8,4.96-1.09,3.41-.49,6.69-1.22,10.01-1.95,3.41-.41,6.87-1.06,10.25-1.78,4.11-.6,8.26-1.19,12.32-1.91,4.46-.55,8.85-1.17,13.3-1.88,4.17-.53,8.36-.73,12.5-1.46,3.9-.76,7.82-.83,11.78-1.14,3.67-.47,7.38-1.07,11.03-1.38,2.47-.25,4.98-.2,7.44-.42,5.1-.5,10.27-1.12,15.42-1.55,5.89-.18,11.81-.35,17.7-.7,13.1-1.35,26.26-1.41,39.43-1.45,4.57-.12,9.12-.41,13.69-.08,8.23.26,16.45.02,24.62,1.19,3.05.47,6.12.77,9.2.94,3.91.24,7.68,1.28,11.56,1.68,1.25.15,3.7.52,3.35,1.67-.67,1.1-3.26.7-4.59.63-8.98-.2-18.08-.95-27.03-1.55-18.43-.74-36.92-.73-55.36.1-5.56.28-11.1.61-16.64,1.15-3.13.2-6.31.12-9.4.49-4.06.55-8.19.71-12.26,1.11-3.53.42-7.05.43-10.65.74-2.89.26-5.74.79-8.61,1.08-4.63.6-9.34.54-13.94,1.41-3.6.62-7.3.92-10.91,1.31-4.58.7-9.18,1.45-13.8,1.99-2.7.4-5.33,1.05-8.05,1.32-1.24.13-2.48.28-3.7.48-1.88.3-3.74.79-5.62,1.13-2.84.49-5.66.73-8.45,1.41-2.62.66-5.26,1.06-7.93,1.55-3.32.78-6.69,1.3-10.01,2.03-3.8.93-7.59,1.68-11.33,2.77-3.29.68-6.55,1.52-9.79,2.4-5.09,1.46-10.25,2.85-15.35,4.24-2.51.78-5.06,1.57-7.6,2.25-1.57.4-3.14.71-4.48-.1l-.05-.03Z"></path><g><path class="cls-2" d="M72.61,28.59c-.86-.51-.69-2.22-.71-3.24.04-1.13-.18-2.8-.93-3.14-2.26-1.29-8.73,7.38-9.96,9.22-2.33,3.62,3.15,2.78,5.34,3.49,3.09.8,5.96,2.27,8.45,4.2,11.5,10.26,13.8,28.04,8.53,42.05-1.46,3.82-3.43,7.3-5.98,10.52-5.01,6.29-12.16,10.83-20,12.69-4.28.95-8.75.19-12.87-1.17-4.76-1.57-8.63-4.55-12.18-8.07-1.84-1.94-3.58-4.09-5.72-1.11-.97,1.26-1.97,2.58-3.05,3.84-.96,1.18-1.98,2.27-3.29,2.69-2.14.76-4.24-.98-4.69-3.06-.81-2.88.05-5.92,1.18-8.58,1.15-3.09,3.79-5.65,7.13-6.11,4.21-.35,4.29-2.3,6.13-5.65,2.76-5.14,3.69-5.67,1.44-11.35-1.93-5.23-.77-10.54,1.65-15.37,2.85-4.99,7.33-9.1,12.23-12.03,2.14-1.38,4.72-2.05,6.73-3.62,1.88-1.54,2.99-3.75,4.43-5.67,1.95-2.75,4.14-5.2,6.36-7.68,2.24-2.3,5.28-6.04,8.82-5.37,2.98.87,4.36,4.08,4.38,7.11.05,1.69-.27,3.57-1.52,4.78-.47.48-1.32.97-1.9.64l-.04-.02ZM71.57,61.52c3.17,1.97,3.49,6.35,1.79,9.43-1.74,3.37-4.9,5.75-8.44,7.11-2.32.96-4.73,1.82-7.24,1.92-1.15.06-2.31.04-3.46.04-1.6,0-3.2.05-4.8-.1-2.45-.24-4.85-1.09-7.06-2.14-1.72-.61-3.7-2.99-5.53-1.99-.76.47-1.3,1.46-1.75,2.29-.71,1.37-1.46,2.7-2.18,4.06-1.16,2.03-2.24,4.27-.61,6.24,1.93,2.31,4.24,4.33,6.68,6.1,5.58,4.2,12.77,6.06,19.64,4.45,10.49-2.74,17.58-12.61,20.66-22.56,1.01-3.94,2.01-7.99,2.05-12.09,0-7.11-2.64-14.59-7.48-19.86-2.41-2.57-5.59-4.26-9.05-5.02-2.78-.55-5.97-.77-8.49.71-.88.57-1.59,1.38-2.16,2.28-1.18,1.87-2.21,3.83-3.31,5.73-1.31,2.39-2.74,4.7-4.05,7.1-1.3,2.57-2.59,5.07-3.95,7.66-.7,1.43-1.45,2.86-2.14,4.29-.61,1.29-.91,2.85.21,3.95,3.81,3.23,9.89,4.48,14.82,4.02,4.72-.57,9.71-1.67,12.53-5.73,1.65-2.22,1.15-4.76-.04-7.08-1.24-2.84,1.58-2.02,3.3-.83l.06.04ZM47.51,42.96c-1.51-.09-5.64,4.29-6.83,5.54-2.7,2.87-4.79,6.18-5.4,10.14-.27,1.58-.34,3.38.14,4.89.58,1.79,1.53.99,2.18-.22,2.57-4.64,4.79-9.5,7.33-14.17.41-1.03,3.44-5.61,2.61-6.18h-.03ZM24.49,87.64c-.11-.2-.41-.21-.64-.15-1.1.28-1.63,1.46-2.28,2.44-.36.58-.77,1.29-.77,1.97.32,2.24,2.84-2.73,3.32-3.16.2-.29.51-.74.4-1.07l-.02-.04Z"></path><path class="cls-2" d="M94.17,94.89c-4.1-3.69-5.34-8.51-4.29-13.91,1.22-9.4,11.06-19.56,18.48-24.98,2.68-1.85,5.74-3.63,9.05-3.85,2.43-.08,5.02.91,6.54,2.67,1.25,1.52,1.34,3.74,1.21,5.89-.15,2.81-1.72,5.24-3.19,7.56-3.46,5.08-8.19,9.2-13.84,11.62-2.26.86-5.7,2.86-7.97,1.49-1.16-.73-1.97-2.25-1.38-3.45.96-1.48,3.08-1.47,4.57-2.19,3.04-1.1,5.99-2.81,8.44-4.85,1.44-1.2,2.74-2.42,3.98-3.92,1.43-1.63,2.65-3.46,3.7-5.28.42-.75.83-1.65.87-2.48.06-1.44-1.2-1.96-2.61-1.59-.97.23-1.92.74-2.77,1.28-3.05,1.99-6.22,4.19-8.95,6.58-4.74,4.29-9.08,9.23-10.97,15.47-2.23,5.71.72,11.2,6.05,13.75,5.33,2.38,11.38,2.7,17.12,2.17,2.18-.16,4.36-.38,6.55-.57.76-.02,4.21-.68,3.65.67-.18.41-.98,1.04-1.55,1.37-3.44,2.07-7.47,2.78-11.46,2.8-7.42.52-15.51-1.16-21.14-6.21l-.06-.05Z"></path><path class="cls-2" d="M149.24,63.01c1.02-1.72,2.12-4.15,3.7-5.23,1.33-.8,2.86.38,3.05,1.79.49,1.11-1.74,5.14.81,3.34,2.71-2.26,5.27-4.76,8.62-6.08,2.48-1.13,5.93-.66,7.66,1.44,2.31,3.35-.41,7.97-.75,11.71-.35,4.92-1.92,9.9-1.1,14.83.54,3.82,2.66,5.4,6.51,5.46,1.62.28,5.89-.62,5.71,1.83-.17,1.06-1.69,2.11-2.88,2.44-3.76,1.3-8.31.39-10.71-2.93-4.56-6.41-3.98-14.66-2.27-21.95.3-1.39.49-2.81.78-4.19.07-.97,1.27-3.69-.13-3.85-3.74.53-8.03,5.62-10.51,8.39-4.59,5.31-8.4,11.11-12.22,16.99-1.36,2.02-2.67,4-3.91,6.01-.41.65-.9,1.34-1.44,1.84-1.57,1.66-4.04.56-4.31-1.59-.14-2.29,1.54-4.35,2.37-6.4.83-1.77,1.76-3.46,2.59-5.23,1-1.88,1.97-3.79,2.9-5.74,1.86-4.25,3.27-8.75,5.5-12.81l.04-.07Z"></path><path class="cls-2" d="M276.96,64.28c.63-1.47.85-3.15,1.62-4.56,2.2-3.8,6.17-6.32,10.43-7.34,7.52-1.78,14.68,4.49,16.41,11.55,1.93,7.16-2.38,14.25-8.01,18.41-3.92,2.94-8.71,4.36-13.5,5.08-4.53.37-10.1-1.69-11.57-6.38-1.52-4.59.67-9.94,3-13.93.6-.88,1.21-1.77,1.61-2.75l.03-.07ZM298.73,74.64c.73-.83,1.4-1.82,2.01-2.79,1.52-2.41,1.86-5.6,1.14-8.4-.74-2.71-3.02-4.82-5.59-5.8-2.28-.89-5.53-1.18-7.77-.27-.61.29-.8.63-.5,1,.61.71,2.01,1.26,2.54,2.15,1.14,2.09-1.47,2.43-3.34,3.01-1.95.76-5.56,2.6-4.09,4.86.65,1.28,3.76,2.58,3.29,4.14-.54.93-2.69.54-3.65,0-1.13-.52-2.25-1.44-3.54-1.12-1.7.61-2.45,3.72-2.91,5.51-1.36,6.48,7.11,5.78,11.17,4.82,2.64-.58,4.95-2,7.15-3.57,1.51-1.03,2.91-2.17,4.05-3.49l.05-.06Z"></path><path class="cls-2" d="M338.38,79.36c2.06,1.68-.12,3.77-2.24,3.79-6.54.46-8.36-5.75-7.12-11.12.68-2.9,1.6-5.69,2.52-8.5.45-1.46,2.5-5.61-.7-4.64-5.47,2.26-10.48,9.18-13.98,13.92-1.29,1.69-2.62,3.38-3.9,5.06-1.49,1.78-2.67,4.07-4.53,5.47-1.66.97-2.58-.75-2.63-2.39-.02-4.12,2.36-7.71,4-11.36,1.9-4.16,4.18-8.01,6.7-11.8.57-.87,1.38-1.94,2.26-2.37,1.78-.93,3.44,1.72,5.3.89,1.88-.79,3.75-2.73,5.83-3.38,3.23-1.41,7.24,0,8.04,3.63.85,3.8-1.39,7.39-2.64,10.85-.94,2.58-2.22,5.21-2.29,8,.15,3.22,3.31,2.6,5.33,3.92l.05.04Z"></path><path class="cls-2" d="M227.52,81.53c.82-2.53-9.44-5.75-11.09-11.72-1.59-4.59,1.31-8.7,5.46-10.54,3.56-1.87,10.84-4.15,14.57-2.19.95.54,1.56,1.51,1.71,2.58.18,1.55-.7,4.23-2.4,3.06-2.32-1.95-3.96-1.74-6.8-.82-3.35,1.17-10.11,3.6-7.61,8.22,1.17,1.76,3.12,2.84,4.84,4,3.7,2.34,10.58,7.82,5.52,12.09-1.23.94-2.83,1.35-4.33,1.68-1.87.38-3.76.78-5.69,1.05-3.86.33-8.13,1.25-11.74-.58-3.84-2.13-1.77-5.08,1.85-5.16,2.19-.02,4.1,1.41,6.4,1.08,2.46-.27,8.02-.35,9.3-2.71l.02-.05Z"></path><path class="cls-2" d="M251.21,79.94c.04-.74-.86-1.54-1.39-2.13-1.29-1.33-2.47-2.8-3.41-4.37-1.72-2.98-2.13-6.85-.94-10.09,2.15-5,8-7.76,13.07-8.9,3.87-1.06,8.15.22,9.47,4.29.96,2.69-.11,5.67-2.54,7.19-1.15.79-2.31,1.52-3.61,1.86-.92.26-1.67-.07-.87-1.24,1.09-1.58,3.97-3.48,3.68-5.63-.71-2.72-4.98-2.03-6.98-1.29-5.36,2.21-11.48,7-6.71,12.97,1.87,2.45,4.37,4.17,6.46,6.41,1.97,2.06,1.64,5.21-1.16,6.22-1.19.46-2.54.52-3.83.53-1.54,0-3.08-.02-4.62-.01-1.89-.02-3.9.12-5.53-.54-1.35-.46-2.61-1.98-2.11-3.41.79-1.85,3.08-1.31,4.86-1.06,1.48.2,5.55.7,6.13-.75v-.04Z"></path><path class="cls-2" d="M368.05,54.07c1.82,1.66,2.46,5.01,1.53,7.34-.43,1.08-1.82,1.72-2.5.53-.64-1.01-.53-2.91-1.57-3.71-1.57-1.16-3.81.26-5.11,1.36-2.01,1.73-3.26,4.19-3.78,6.77-1.16,5.1-.24,11.43-3.36,15.81-2.61,3.42-9.47,4.29-12.95,2.01-2.08-1.95,3.29-2.46,4.37-3.01,2.43-.82,4.91-2.17,5.93-4.54,1.13-2.45.64-5.23.98-7.86.47-2.99,1.19-6.12,2.42-8.79,1.47-2.88,3.77-5.58,6.87-6.74,2.25-.81,5.29-.83,7.12.78l.06.05Z"></path><path class="cls-2" d="M189.97,82.23c.16-2.86.34-5.77.87-8.59.32-1.52.85-3.02,1.21-4.55.61-2.12.9-4.42,2.05-6.31,1.17-1.89,3.75-1.67,4.27.57.44,2.15-.82,4.21-1.38,6.26-.29.97-.48,1.96-.69,2.95-.92,4.25-2.48,8.6-1.49,12.99.63,2.61,2.83,2.3,4.77,3.14,2.17,1.2.62,4-1.5,4.1-2.48.28-4.85-1.25-6.23-3.22-1.47-2.09-1.87-4.77-1.87-7.28v-.08Z"></path><path class="cls-2" d="M193.03,48.22c.55-1.12,1.85-1.78,2.88-2.51,2.55-1.7,5.76-1.98,8.75-1.51,3.33.4,4.29,4.54,2.24,6.88-1.57,1.72-4.49,2.4-6.67,1.54-1.26-.48-2.18-1.57-3.38-2.01-1.27-.66-4.39-.26-3.84-2.34l.02-.05ZM199.75,49.19c.24.27.94.15,1.34.13.61-.03,1.32-.41.78-1.02-.63-.57-2.11.08-2.14.85l.02.04Z"></path></g></g><g><g><path class="cls-2" d="M434.69,31.74h8.42c1.55,0,2.8.36,3.74,1.09.94.73,1.41,1.83,1.41,3.31,0,.9-.21,1.66-.64,2.3-.43.64-1.04,1.13-1.83,1.48v.05c1.07.23,1.88.75,2.43,1.55.55.8.83,1.81.83,3.02,0,.7-.12,1.35-.36,1.95-.24.61-.62,1.13-1.14,1.57-.52.44-1.18.79-1.99,1.04-.81.26-1.77.39-2.89.39h-7.96v-17.75ZM437.72,39.17h4.95c.73,0,1.34-.21,1.82-.63s.73-1.03.73-1.83c0-.9-.22-1.53-.66-1.89-.44-.36-1.07-.55-1.89-.55h-4.95v4.9ZM437.72,46.95h5.36c.92,0,1.64-.24,2.15-.73.51-.49.76-1.18.76-2.08s-.26-1.55-.76-2.03c-.51-.47-1.22-.71-2.15-.71h-5.36v5.54Z"></path><path class="cls-2" d="M453.71,31.74h12.47v2.69h-9.44v4.65h8.74v2.54h-8.74v5.2h9.61v2.69h-12.64v-17.75Z"></path><path class="cls-2" d="M475.58,31.74h3.23l6.67,17.75h-3.25l-1.63-4.7h-6.92l-1.63,4.7h-3.13l6.65-17.75ZM474.51,42.43h5.29l-2.6-7.63h-.07l-2.62,7.63Z"></path><path class="cls-2" d="M500.76,37.38c-.13-.51-.31-.99-.53-1.42-.23-.43-.52-.8-.87-1.12-.36-.31-.77-.56-1.25-.73-.48-.17-1.03-.26-1.66-.26-.92,0-1.72.19-2.39.57-.67.38-1.22.89-1.64,1.53-.42.64-.73,1.36-.93,2.18-.2.81-.3,1.64-.3,2.49s.1,1.67.3,2.49c.2.81.51,1.54.93,2.18.42.64.97,1.15,1.64,1.53.67.38,1.47.57,2.39.57.68,0,1.28-.12,1.8-.36.52-.24.96-.57,1.33-.99.37-.42.66-.92.87-1.48.21-.56.35-1.17.41-1.81h2.96c-.07,1.06-.29,2.03-.67,2.91-.38.88-.89,1.64-1.54,2.28-.65.64-1.41,1.13-2.28,1.48-.87.35-1.84.52-2.89.52-1.29,0-2.45-.24-3.48-.73-1.03-.49-1.9-1.16-2.61-2-.71-.85-1.26-1.83-1.64-2.96-.38-1.13-.57-2.33-.57-3.61s.19-2.45.57-3.58c.38-1.13.93-2.11,1.64-2.96.71-.85,1.58-1.52,2.61-2.01,1.03-.5,2.19-.75,3.48-.75.97,0,1.88.14,2.74.41.86.27,1.61.67,2.27,1.19.65.52,1.18,1.16,1.59,1.9.4.75.65,1.6.75,2.56h-3.03Z"></path><path class="cls-2" d="M508.46,31.74h3.03v7.06h7.89v-7.06h3.03v17.75h-3.03v-8.01h-7.89v8.01h-3.03v-17.75Z"></path><path class="cls-2" d="M536.68,31.74h8.28c1.91,0,3.34.42,4.29,1.27.95.85,1.43,2.02,1.43,3.53,0,.85-.12,1.55-.36,2.1-.24.56-.53,1-.85,1.34-.32.34-.64.58-.96.73-.32.15-.55.25-.69.3v.05c.26.03.54.12.84.25.3.13.58.34.84.63.26.29.47.67.64,1.13.17.46.25,1.04.25,1.74,0,1.04.08,1.99.23,2.85.15.85.39,1.46.72,1.83h-3.25c-.23-.38-.36-.8-.4-1.27-.04-.46-.06-.91-.06-1.34,0-.81-.05-1.51-.15-2.1-.1-.59-.28-1.08-.53-1.47-.26-.39-.61-.68-1.06-.86-.45-.18-1.02-.27-1.71-.27h-4.46v7.31h-3.03v-17.75ZM539.71,39.82h4.97c.97,0,1.71-.24,2.21-.71.5-.47.75-1.18.75-2.13,0-.56-.08-1.02-.24-1.38-.16-.36-.38-.63-.67-.83s-.61-.33-.97-.4c-.36-.07-.74-.1-1.13-.1h-4.93v5.55Z"></path><path class="cls-2" d="M555.7,31.74h12.47v2.69h-9.44v4.65h8.74v2.54h-8.74v5.2h9.61v2.69h-12.64v-17.75Z"></path><path class="cls-2" d="M574.92,43.57c0,.68.11,1.26.34,1.74.23.48.54.87.95,1.18.4.31.87.53,1.4.67.53.14,1.1.21,1.71.21.66,0,1.23-.08,1.7-.24.47-.16.85-.36,1.14-.61.29-.25.5-.53.63-.86.13-.32.19-.65.19-.98,0-.68-.15-1.18-.45-1.5-.3-.32-.63-.55-.98-.68-.62-.23-1.33-.45-2.15-.66-.82-.21-1.82-.48-3.02-.81-.74-.2-1.36-.46-1.86-.78-.49-.32-.89-.68-1.18-1.08-.29-.4-.5-.82-.62-1.27-.12-.45-.18-.9-.18-1.37,0-.9.18-1.67.55-2.33.36-.65.85-1.2,1.44-1.63.6-.43,1.28-.75,2.04-.96s1.53-.31,2.31-.31c.91,0,1.76.12,2.56.36.8.24,1.5.6,2.11,1.08.61.48,1.09,1.07,1.44,1.78.36.7.53,1.52.53,2.45h-3.03c-.08-1.14-.46-1.95-1.14-2.42-.68-.47-1.55-.71-2.6-.71-.36,0-.72.04-1.09.11-.37.07-.71.2-1.02.37s-.56.41-.76.71c-.2.3-.3.67-.3,1.12,0,.63.19,1.12.57,1.48.38.36.88.63,1.49.81.07.02.32.09.76.21.44.12.94.26,1.49.41.55.15,1.09.29,1.61.43.53.14.9.24,1.13.31.57.18,1.06.43,1.48.75.42.31.77.68,1.06,1.08.28.41.49.84.63,1.31.14.46.21.93.21,1.39,0,.99-.2,1.84-.59,2.55-.4.71-.92,1.28-1.57,1.73-.65.45-1.38.78-2.21.98-.83.21-1.67.31-2.52.31-.99,0-1.92-.12-2.79-.37-.87-.25-1.63-.63-2.28-1.14-.65-.51-1.16-1.17-1.55-1.98-.39-.8-.59-1.75-.61-2.85h3.03Z"></path><path class="cls-2" d="M597.97,31.31c1.29,0,2.45.25,3.48.75,1.03.5,1.9,1.17,2.61,2.01.71.85,1.26,1.83,1.64,2.96.38,1.13.57,2.32.57,3.58s-.19,2.48-.57,3.61c-.38,1.13-.93,2.11-1.64,2.96-.71.85-1.58,1.51-2.61,2-1.03.49-2.19.73-3.48.73s-2.45-.24-3.48-.73c-1.03-.49-1.9-1.16-2.61-2-.71-.85-1.26-1.83-1.64-2.96-.38-1.13-.57-2.33-.57-3.61s.19-2.45.57-3.58c.38-1.13.93-2.11,1.64-2.96.71-.85,1.58-1.52,2.61-2.01,1.03-.5,2.19-.75,3.48-.75ZM597.97,33.85c-.92,0-1.72.19-2.39.57-.67.38-1.22.89-1.64,1.53-.42.64-.73,1.36-.93,2.18-.2.81-.3,1.64-.3,2.49s.1,1.67.3,2.49c.2.81.51,1.54.93,2.18.42.64.97,1.15,1.64,1.53.67.38,1.47.57,2.39.57s1.72-.19,2.39-.57c.67-.38,1.22-.89,1.64-1.53.42-.64.73-1.36.93-2.18.2-.81.3-1.64.3-2.49s-.1-1.67-.3-2.49c-.2-.81-.51-1.54-.93-2.18-.42-.64-.97-1.15-1.64-1.53-.67-.38-1.47-.57-2.39-.57Z"></path><path class="cls-2" d="M610.98,31.74h8.28c1.91,0,3.34.42,4.29,1.27.95.85,1.43,2.02,1.43,3.53,0,.85-.12,1.55-.36,2.1-.24.56-.53,1-.85,1.34-.32.34-.64.58-.96.73-.32.15-.55.25-.69.3v.05c.26.03.54.12.84.25.3.13.58.34.84.63.26.29.47.67.64,1.13.17.46.25,1.04.25,1.74,0,1.04.08,1.99.23,2.85.15.85.39,1.46.72,1.83h-3.25c-.23-.38-.36-.8-.4-1.27-.04-.46-.06-.91-.06-1.34,0-.81-.05-1.51-.15-2.1-.1-.59-.28-1.08-.53-1.47-.26-.39-.61-.68-1.06-.86-.45-.18-1.02-.27-1.71-.27h-4.46v7.31h-3.03v-17.75ZM614.01,39.82h4.97c.97,0,1.71-.24,2.21-.71.5-.47.75-1.18.75-2.13,0-.56-.08-1.02-.24-1.38-.16-.36-.38-.63-.67-.83s-.61-.33-.97-.4c-.36-.07-.74-.1-1.13-.1h-4.93v5.55Z"></path><path class="cls-2" d="M627.92,31.74h14.03v2.69h-5.51v15.07h-3.03v-15.07h-5.48v-2.69Z"></path></g><g><path class="cls-2" d="M447.31,71.23c-.13-.51-.31-.99-.53-1.42-.23-.43-.52-.8-.87-1.12-.36-.31-.77-.56-1.25-.73-.48-.17-1.03-.26-1.66-.26-.92,0-1.72.19-2.39.57-.67.38-1.22.89-1.64,1.53-.42.64-.73,1.36-.93,2.18-.2.81-.3,1.64-.3,2.49s.1,1.67.3,2.49c.2.81.51,1.54.93,2.18.42.64.97,1.15,1.64,1.53.67.38,1.47.57,2.39.57.68,0,1.28-.12,1.8-.36.52-.24.96-.57,1.33-.99.37-.42.66-.92.87-1.48.21-.56.35-1.17.41-1.81h2.96c-.07,1.06-.29,2.03-.67,2.91-.38.88-.89,1.64-1.54,2.28-.65.64-1.41,1.13-2.28,1.48-.87.35-1.84.52-2.89.52-1.29,0-2.45-.24-3.48-.73-1.03-.49-1.9-1.16-2.61-2-.71-.85-1.26-1.83-1.64-2.96-.38-1.13-.57-2.33-.57-3.61s.19-2.45.57-3.58c.38-1.13.93-2.11,1.64-2.96.71-.85,1.58-1.52,2.61-2.01,1.03-.5,2.19-.75,3.48-.75.97,0,1.88.14,2.74.41.86.27,1.61.67,2.27,1.19.65.52,1.18,1.16,1.59,1.9.4.75.65,1.6.75,2.56h-3.03Z"></path><path class="cls-2" d="M462.45,65.16c1.29,0,2.45.25,3.48.75,1.03.5,1.9,1.17,2.61,2.01.71.85,1.26,1.83,1.64,2.96.38,1.13.57,2.32.57,3.58s-.19,2.48-.57,3.61c-.38,1.13-.93,2.11-1.64,2.96-.71.85-1.58,1.51-2.61,2-1.03.49-2.19.73-3.48.73s-2.45-.24-3.48-.73c-1.03-.49-1.9-1.16-2.61-2-.71-.85-1.26-1.83-1.64-2.96-.38-1.13-.57-2.33-.57-3.61s.19-2.45.57-3.58c.38-1.13.93-2.11,1.64-2.96s1.58-1.52,2.61-2.01c1.03-.5,2.19-.75,3.48-.75ZM462.45,67.7c-.92,0-1.72.19-2.39.57-.67.38-1.22.89-1.64,1.53-.42.64-.73,1.36-.93,2.18-.2.81-.3,1.64-.3,2.49s.1,1.67.3,2.49c.2.81.51,1.54.93,2.18.42.64.97,1.15,1.64,1.53.67.38,1.47.57,2.39.57s1.72-.19,2.39-.57c.67-.38,1.22-.89,1.64-1.53.42-.64.73-1.36.93-2.18.2-.81.3-1.64.3-2.49s-.1-1.67-.3-2.49c-.2-.81-.51-1.54-.93-2.18-.42-.64-.97-1.15-1.64-1.53-.67-.38-1.47-.57-2.39-.57Z"></path><path class="cls-2" d="M475.33,65.59h3.2l7.91,13.08h.05v-13.08h2.89v17.75h-3.2l-7.89-13.05h-.07v13.05h-2.89v-17.75Z"></path><path class="cls-2" d="M492.95,65.59h3.15l4.34,14.05h.05l4.44-14.05h3.08l-5.92,17.75h-3.37l-5.78-17.75Z"></path><path class="cls-2" d="M511.68,65.59h12.47v2.69h-9.44v4.65h8.74v2.54h-8.74v5.2h9.61v2.69h-12.64v-17.75Z"></path><path class="cls-2" d="M528.79,65.59h3.2l7.91,13.08h.05v-13.08h2.89v17.75h-3.2l-7.89-13.05h-.07v13.05h-2.89v-17.75Z"></path><path class="cls-2" d="M546.72,65.59h14.03v2.69h-5.51v15.07h-3.03v-15.07h-5.48v-2.69Z"></path><path class="cls-2" d="M564.7,65.59h3.03v17.75h-3.03v-17.75Z"></path><path class="cls-2" d="M580.77,65.16c1.29,0,2.45.25,3.48.75,1.03.5,1.9,1.17,2.61,2.01.71.85,1.26,1.83,1.64,2.96.38,1.13.57,2.32.57,3.58s-.19,2.48-.57,3.61c-.38,1.13-.93,2.11-1.64,2.96-.71.85-1.58,1.51-2.61,2-1.03.49-2.19.73-3.48.73s-2.45-.24-3.48-.73c-1.03-.49-1.9-1.16-2.61-2-.71-.85-1.26-1.83-1.64-2.96-.38-1.13-.57-2.33-.57-3.61s.19-2.45.57-3.58c.38-1.13.93-2.11,1.64-2.96s1.58-1.52,2.61-2.01c1.03-.5,2.19-.75,3.48-.75ZM580.77,67.7c-.92,0-1.72.19-2.39.57-.67.38-1.22.89-1.64,1.53-.42.64-.73,1.36-.93,2.18-.2.81-.3,1.64-.3,2.49s.1,1.67.3,2.49c.2.81.51,1.54.93,2.18.42.64.97,1.15,1.64,1.53.67.38,1.47.57,2.39.57s1.72-.19,2.39-.57c.67-.38,1.22-.89,1.64-1.53.42-.64.73-1.36.93-2.18.2-.81.3-1.64.3-2.49s-.1-1.67-.3-2.49c-.2-.81-.51-1.54-.93-2.18-.42-.64-.97-1.15-1.64-1.53-.67-.38-1.47-.57-2.39-.57Z"></path><path class="cls-2" d="M593.65,65.59h3.2l7.91,13.08h.05v-13.08h2.89v17.75h-3.2l-7.89-13.05h-.07v13.05h-2.89v-17.75Z"></path></g><g><path class="cls-2" d="M437.72,111.27c0,.68.11,1.26.34,1.74.23.48.54.87.95,1.18.4.31.87.53,1.4.67.53.14,1.1.21,1.71.21.66,0,1.23-.08,1.7-.24.47-.16.85-.36,1.14-.61.29-.25.5-.53.63-.86.13-.32.19-.65.19-.98,0-.68-.15-1.18-.45-1.5-.3-.32-.63-.55-.98-.68-.62-.23-1.33-.45-2.15-.66-.82-.21-1.82-.48-3.02-.81-.74-.2-1.36-.46-1.86-.78-.49-.32-.89-.68-1.18-1.08-.29-.4-.5-.82-.62-1.27-.12-.45-.18-.9-.18-1.37,0-.9.18-1.67.55-2.33.36-.65.85-1.2,1.44-1.63.6-.43,1.28-.75,2.04-.96s1.53-.31,2.31-.31c.91,0,1.76.12,2.56.36.8.24,1.5.6,2.11,1.08.61.48,1.09,1.07,1.44,1.78.36.7.53,1.52.53,2.45h-3.03c-.08-1.14-.46-1.95-1.14-2.42-.68-.47-1.55-.71-2.6-.71-.36,0-.72.04-1.09.11-.37.07-.71.2-1.02.37s-.56.41-.76.71c-.2.3-.3.67-.3,1.12,0,.63.19,1.12.57,1.48.38.36.88.63,1.49.81.07.02.32.09.76.21.44.12.94.26,1.49.41.55.15,1.09.29,1.61.43.53.14.9.24,1.13.31.57.18,1.06.43,1.48.75.42.31.77.68,1.06,1.08s.49.84.63,1.31c.14.46.21.93.21,1.39,0,.99-.2,1.84-.59,2.55-.4.71-.92,1.28-1.57,1.73-.65.45-1.38.78-2.21.98-.83.21-1.67.31-2.52.31-.99,0-1.92-.12-2.79-.37-.87-.25-1.63-.63-2.28-1.14-.65-.51-1.16-1.17-1.55-1.98-.39-.8-.59-1.75-.61-2.85h3.03Z"></path><path class="cls-2" d="M453.4,99.44h7.64c1.23,0,2.23.18,3.01.55.78.36,1.38.82,1.8,1.37.42.55.71,1.14.86,1.79.15.65.23,1.24.23,1.79s-.08,1.14-.23,1.78c-.15.64-.44,1.23-.86,1.78-.42.55-1.02,1-1.8,1.36-.78.36-1.78.53-3.01.53h-4.61v6.81h-3.03v-17.75ZM456.43,107.84h4.44c.34,0,.69-.05,1.04-.15.36-.1.68-.26.98-.48.3-.22.54-.52.73-.9.19-.37.28-.84.28-1.4s-.08-1.06-.24-1.44c-.16-.38-.38-.68-.66-.91-.28-.22-.59-.38-.95-.46-.36-.08-.74-.12-1.14-.12h-4.49v5.87Z"></path><path class="cls-2" d="M474.36,99.44h3.23l6.67,17.75h-3.25l-1.63-4.7h-6.92l-1.63,4.7h-3.13l6.65-17.75ZM473.29,110.13h5.29l-2.6-7.63h-.07l-2.62,7.63Z"></path></g></g></svg>